# AST/ASF file generated using VICON BodyLanguage
# -----------------------------------------------
:version 1.10
:name VICON
:units
  mass 1.0
  length 0.45
  angle deg
:documentation
   .ast/.asf automatically generated from VICON data using
   VICON BodyBuilder and BodyLanguage model FoxedUp or BRILLIANT.MOD
:root
   order TX TY TZ RX RY RZ
   axis XYZ
   position 0 0 0  
   orientation 0 0 0 
:bonedata
  begin
     id 1 
     name lhipjoint
     direction 0.584852 -0.759097 0.285867 
     length 2.43633 
     axis 0 0 0  XYZ
  end
  begin
     id 2 
     name lfemur
     direction 0.34202 -0.939693 0  
     length 7.14704  
     axis 0 0 20  XYZ
    dof rx ry rz
    limits (-160.0 20.0)
           (-70.0 70.0)
           (-60.0 70.0)
  end
  begin
     id 3 
     name ltibia
     direction 0.342022 -0.939692 0   
     length 7.68483   
     axis 0 0 20   XYZ
    dof rx
    limits (-10.0 170.0)
  end
  begin
     id 4 
     name lfoot
     direction 0.0999605 -0.274639 0.956337   
     length 2.40452   
     axis -90 7.62852e-016 20   XYZ
    dof rx rz
    limits (-45.0 90.0)
           (-70.0 20.0)
  end
  begin
     id 5 
     name ltoes
     direction 1.53468e-011 -4.21881e-011 1   
     length 1.19837   
     axis -90 7.62852e-016 20   XYZ
    dof rx
    limits (-90.0 20.0)
  end
  begin
     id 6 
     name rhipjoint
     direction -0.569886 -0.769002 0.289597   
     length 2.40495  
     axis 0 0 0  XYZ 
  end
  begin
     id 7 
     name rfemur
     direction -0.34202 -0.939693 0   
     length 7.45086   
     axis 0 0 -20   XYZ
    dof rx ry rz
    limits (-160.0 20.0)
           (-70.0 70.0)
           (-70.0 60.0)
  end
  begin
     id 8 
     name rtibia
     direction -0.34202 -0.939693 0   
     length 7.76831   
     axis 0 0 -20   XYZ
    dof rx
    limits (-10.0 170.0)
 end
 begin
     id 9 
     name rfoot
     direction -0.0798572 -0.219406 0.97236   
     length 2.35911  
     axis -90 -7.62852e-016 -20   XYZ
    dof rx rz
    limits (-45.0 90.0)
           (-20.0 70.0)
  end
  begin
     id 10 
     name rtoes
     direction -1.53469e-011 -4.21728e-011 1   
     length 1.18261   
     axis -90 -7.62852e-016 -20   XYZ
    dof rx
    limits (-90.0 20.0)
  end
  begin
     id 11 
     name lowerback
     direction 0.0242088 0.999437 0.0232389   
     length 2.1561   
     axis 0 0 0   XYZ
    dof rx ry rz
    limits (-20.0 45.0)
           (-30.0 30.0)
           (-30.0 30.0)
  end
  begin
     id 12 
     name upperback
     direction -0.0356893 0.999013 -0.0264323   
     length 2.14431   
     axis 0 0 0   XYZ
    dof rx ry rz
    limits (-20.0 45.0)
           (-30.0 30.0)
           (-30.0 30.0)
  end
  begin
     id 13 
     name thorax
     direction -0.0472163 0.998194 -0.0371284   
     length 2.16169   
     axis 0 0 0   XYZ
    dof rx ry rz
    limits (-20.0 45.0)
           (-30.0 30.0)
           (-30.0 30.0)
  end
  begin
     id 14 
     name lowerneck
     direction 0.00863244 0.999921 0.00911972   
     length 1.58651   
     axis 0 0 0   XYZ
    dof rx ry rz
    limits (-20.0 45.0)
           (-30.0 30.0)
           (-30.0 30.0)
  end
  begin
     id 15 
     name upperneck
     direction 0.149523 0.979068 -0.138086   
     length 1.57486   
     axis 0 0 0   XYZ
    dof rx ry rz
    limits (-20.0 45.0)
           (-30.0 30.0)
           (-30.0 30.0)
  end
  begin
     id 16
     name head
     direction 0.0445219 0.997708 -0.0509576  
     length 1.6019  
     axis 0 0 0   XYZ
    dof rx ry rz
    limits (-20.0 45.0)
           (-30.0 30.0)
           (-30.0 30.0)
  end
  begin
     id 17 
     name lclavicle
     direction 0.911271 0.381667 -0.154644  
     length 3.80848  
     axis 0 0 0   XYZ
    dof ry rz
    limits (-20.0 10.0)
           (0.0 20.0)
  end
  begin
     id 18 
     name lhumerus
     direction 1 -4.49003e-011 2.1308e-027   
     length 5.19069   
     axis 180 -30 -90   XYZ
    dof rx ry rz
    limits (-60.0 90.0)
           (-90.0 90.0)
           (-90.0 90.0)
  end
  begin
     id 19
     name lradius
     direction 1 -4.48914e-011 4.01554e-027   
     length 3.30016   
     axis 180 -30 -90   XYZ
    dof rx
    limits (-10.0 170.0)
  end
  begin
     id 20
     name lwrist
     direction 1 -4.49003e-011 1.1934e-026   
     length 1.65008   
     axis -8.46377e-015 90 90   XYZ
    dof ry
    limits (-180.0 0.0)
 end
  begin
     id 21 
     name lhand
     direction 1 -4.49034e-011 2.38659e-026   
     length 0.707698   
     axis -1.52313e-014 90 90   XYZ
    dof rx rz
    limits (-90.0 90.0)
           (-45.0 45.0)
  end
  begin
     id 22 
     name lfingers
     direction 1 -4.48691e-011 4.77775e-026   
     length 0.570564   
     axis -3.04623e-014 90 90   XYZ
    dof rx
    limits (0.0 90.0)
  end
  begin
     id 23
     name lthumb
     direction 0.707107 -6.34832e-011 0.707107   
     length 0.819219   
     axis -90 45 -1.62303e-014   XYZ
    dof rx rz
    limits (-45.0 45.0)
           (-45.0 45.0)
  end
  begin
     id 24 
     name rclavicle
     direction -0.815579 0.573708 -0.0754329   
     length 3.54371  
     axis 0 0 0   XYZ 
    dof ry rz
    limits (-10.0 20.0)
           (-20.0 0.0)
  end
  begin
     id 25 
     name rhumerus
     direction -1 -4.48956e-011 3.05351e-028  
     length 5.23924   
     axis 180 30 90   XYZ
    dof rx ry rz
    limits (-90.0 60.0)
           (-90.0 90.0)
           (-90.0 90.0)
  end
  begin
     id 26 
     name rradius
     direction -1 -4.49013e-011 3.53849e-027   
     length 3.32953   
     axis 180 30 90   XYZ
    dof rx
    limits (-10.0 170.0)
  end
  begin
     id 27 
     name rwrist
     direction -1 -4.48901e-011 1.19374e-026   
     length 1.66477   
     axis -8.46377e-015 -90 -90   XYZ
    dof ry
    limits (-180.0 0.0)
  end
  begin
     id 28
     name rhand
     direction -1 -4.48877e-011 2.38764e-026   
     length 0.607414   
     axis -1.52313e-014 -90 -90   XYZ
    dof rx rz
    limits (-90.0 90.0)
           (-45.0 45.0)
  end
  begin
     id 29
     name rfingers
     direction -1 -4.48882e-011 4.77521e-026   
     length 0.489712   
     axis -3.04623e-014 -90 -90   XYZ
    dof rx
    limits (0.0 90.0)
  end
  begin
     id 30
     name rthumb
     direction -0.707107 -6.34974e-011 0.707107   
     length 0.703132   
     axis -90 -45 1.62303e-014   XYZ
    dof rx rz
    limits (-45.0 45.0)
           (-45.0 45.0)
  end
:hierarchy
  begin
    root lhipjoint rhipjoint lowerback
    lhipjoint lfemur
    lfemur ltibia
    ltibia lfoot
    lfoot ltoes
    rhipjoint rfemur
    rfemur rtibia
    rtibia rfoot
    rfoot rtoes
    lowerback upperback
    upperback thorax
    thorax lowerneck lclavicle rclavicle
    lowerneck upperneck
    upperneck head
    lclavicle lhumerus
    lhumerus lradius
    lradius lwrist
    lwrist lhand lthumb
    lhand lfingers
    rclavicle rhumerus
    rhumerus rradius
    rradius rwrist
    rwrist rhand rthumb
    rhand rfingers
  end

#!OML:ASF E:\VariousWalksJay\Project 1\Capture day 1\Session 1\Actor2.ASF
:FULLY-SPECIFIED
:DEGREES
425
root 9.99576 14.1135 2.94558 15.8093 -41.1715 -5.68252
lowerback 45.7924 -3.46553 4.78729
upperback 18.4677 -3.69297 -2.39916
thorax -0.624822 -1.83654 -3.58833
lowerneck 3.20564 2.10942 3.42457
upperneck -26.509 3.34081 0.744124
head -8.7392 1.00622 -0.585286
rclavicle 5.24792e-014 -2.16675e-014
rhumerus -14.8259 29.0398 -77.2132
rradius 110.451
rwrist 2.54882
rhand -35.6707 -7.55635
rfingers 7.12502
rthumb -8.79206 -37.3532
lclavicle 5.24792e-014 -2.16675e-014
lhumerus 59.5332 -6.92573 40.337
lradius 86.3889
lwrist 51.5656
lhand -31.8409 13.5136
lfingers 7.12502
lthumb -5.09515 43.4324
rfemur -61.4991 2.7803 34.2853
rtibia 84.1827
rfoot -33.5385 -16.1126
rtoes -7.99051
lfemur -89.8655 7.60781 -19.3475
ltibia 85.3904
lfoot -17.6779 5.95046
ltoes -20.8434
426
root 9.96663 14.0866 2.99268 15.8614 -41.2402 -5.7643
lowerback 45.9148 -3.42173 4.77312
upperback 18.4638 -3.64439 -2.35961
thorax -0.649626 -1.81905 -3.55373
lowerneck 3.30928 2.09654 3.38265
upperneck -26.5737 3.32041 0.7272
head -8.78128 1.00019 -0.584112
rclavicle -3.18055e-015 -1.10524e-013
rhumerus -14.648 29.106 -77.0522
rradius 110.676
rwrist 2.48906
rhand -35.5682 -7.6352
rfingers 7.12502
rthumb -8.69313 -37.4362
lclavicle -3.18055e-015 -1.10524e-013
lhumerus 59.6956 -6.66992 40.3901
lradius 86.3439
lwrist 51.3977
lhand -31.6801 13.503
lfingers 7.12502
lthumb -4.93986 43.4254
rfemur -61.4166 3.11015 34.2574
rtibia 84.5542
rfoot -33.8883 -16.4759
rtoes -8.56324
lfemur -89.544 7.47292 -19.3325
ltibia 82.9168
lfoot -17.7428 5.95981
ltoes -19.7193
427
root 9.93813 14.0622 3.04396 15.9143 -41.2967 -5.85979
lowerback 46.0574 -3.4153 4.79686
upperback 18.4417 -3.62333 -2.34371
thorax -0.704573 -1.81108 -3.55145
lowerneck 3.41403 2.08879 3.34998
upperneck -26.6003 3.31219 0.72708
head -8.81044 0.998699 -0.579607
rclavicle 1.51076e-014 -4.37326e-014
rhumerus -14.5651 29.1938 -76.9706
rradius 110.883
rwrist 2.47334
rhand -35.4852 -7.71931
rfingers 7.12502
rthumb -8.61299 -37.5236
lclavicle 1.51076e-014 -4.37326e-014
lhumerus 59.8128 -6.46203 40.3512
lradius 86.3262
lwrist 51.3287
lhand -31.5453 13.6247
lfingers 7.12502
lthumb -4.80972 43.5501
rfemur -61.2918 3.39 34.2441
rtibia 84.875
rfoot -34.1715 -16.9371
rtoes -9.24496
lfemur -89.1377 7.33867 -19.3375
ltibia 80.3877
lfoot -17.5084 6.21387
ltoes -20.6182
428
root 9.90803 14.0447 3.0951 15.9718 -41.3515 -5.92652
lowerback 46.1596 -3.36587 4.77269
upperback 18.4235 -3.56995 -2.29157
thorax -0.739177 -1.79256 -3.50046
lowerneck 3.54885 2.06865 3.33142
upperneck -26.6687 3.27926 0.683934
head -8.85891 0.987019 -0.590722
rclavicle -2.06736e-014 5.10877e-014
rhumerus -14.5723 29.2517 -76.896
rradius 111.079
rwrist 2.43471
rhand -35.5242 -7.81658
rfingers 7.12502
rthumb -8.65065 -37.6193
lclavicle -2.06736e-014 5.10877e-014
lhumerus 59.9227 -6.29447 40.2484
lradius 86.3548
lwrist 51.3713
lhand -31.5546 13.7424
lfingers 7.12502
lthumb -4.81871 43.6676
rfemur -61.1554 3.65412 34.2109
rtibia 85.1398
rfoot -34.4224 -17.3929
rtoes -10.0156
lfemur -88.6447 7.21213 -19.3684
ltibia 77.7946
lfoot -17.4797 6.77741
ltoes -22.851
429
root 9.87573 14.0272 3.14891 16.0685 -41.3998 -6.02059
lowerback 46.2106 -3.32511 4.75239
upperback 18.4081 -3.52668 -2.235
thorax -0.759614 -1.77883 -3.44451
lowerneck 3.66991 2.05587 3.26925
upperneck -26.7073 3.25739 0.670397
head -8.89556 0.983043 -0.584889
rclavicle 2.06736e-014 -9.91935e-014
rhumerus -14.5742 29.3644 -76.8194
rradius 111.227
rwrist 2.36142
rhand -35.5803 -7.7574
rfingers 7.12502
rthumb -8.7048 -37.5579
lclavicle 2.06736e-014 -9.91935e-014
lhumerus 59.9634 -6.14699 40.1936
lradius 86.4012
lwrist 51.4019
lhand -31.4496 13.6757
lfingers 7.12502
lthumb -4.71731 43.6032
rfemur -61.0215 3.91639 34.2036
rtibia 85.3871
rfoot -34.7191 -17.7809
rtoes -10.494
lfemur -88.1188 7.13706 -19.4529
ltibia 75.1561
lfoot -17.2512 6.99366
ltoes -22.0838
430
root 9.84353 14.0178 3.20218 16.1591 -41.4407 -6.11452
lowerback 46.2704 -3.29527 4.73758
upperback 18.3884 -3.49363 -2.18767
thorax -0.788589 -1.76908 -3.39682
lowerneck 3.75248 2.04339 3.21871
upperneck -26.6982 3.23131 0.644783
head -8.90798 0.978848 -0.583967
rclavicle -3.33958e-014 -4.57205e-015
rhumerus -14.6285 29.4647 -76.7873
rradius 111.328
rwrist 2.33352
rhand -35.6832 -7.66488
rfingers 7.12502
rthumb -8.80409 -37.4612
lclavicle -3.33958e-014 -4.57205e-015
lhumerus 59.9817 -6.03324 40.0963
lradius 86.471
lwrist 51.4883
lhand -31.3578 13.8431
lfingers 7.12502
lthumb -4.62864 43.7725
rfemur -60.8384 4.14707 34.1947
rtibia 85.5727
rfoot -35.0135 -18.076
rtoes -11.0532
lfemur -87.5277 7.08235 -19.4902
ltibia 72.5346
lfoot -17.2411 7.13733
ltoes -21.2456
